/* XPM */
static char *tetzle[] = {
/* columns rows colors chars-per-pixel */
"32 32 226 2 ",
"   c #030403",
".  c #060904",
"X  c #090B05",
"o  c #0A0D09",
"O  c #0E1305",
"+  c #0E130A",
"@  c #101705",
"#  c #141B06",
"$  c #1D1B06",
"%  c #11140B",
"&  c #141B0B",
"*  c #191D0C",
"=  c #0F1312",
"-  c #121513",
";  c #141B13",
":  c #191D12",
">  c #161A18",
",  c #1B1B1B",
"<  c #1A2607",
"1  c #15210A",
"2  c #1B230C",
"3  c #1E2A0B",
"4  c #172211",
"5  c #1B2312",
"6  c #1C2810",
"7  c #1A221C",
"8  c #1F2A1A",
"9  c #212B05",
"0  c #23250C",
"q  c #222C0C",
"w  c #2D2D0D",
"e  c #25320B",
"r  c #2B360E",
"t  c #2F3B0D",
"y  c #333C0C",
"u  c #212612",
"i  c #242B12",
"p  c #222A1A",
"a  c #2B2D1C",
"s  c #352F10",
"d  c #263114",
"f  c #2B3410",
"g  c #2D3A14",
"h  c #27321A",
"j  c #2A331C",
"k  c #2D391D",
"l  c #313A14",
"z  c #313D1D",
"x  c #3B3B1B",
"c  c #1E2621",
"v  c #1E2920",
"b  c #242D22",
"n  c #202D2A",
"m  c #2B3425",
"M  c #2C3922",
"N  c #26322B",
"B  c #2E342B",
"V  c #2E3F2D",
"C  c #333624",
"Z  c #333D24",
"A  c #30362E",
"S  c #343E2C",
"D  c #283130",
"F  c #2E3C33",
"G  c #2E3C3B",
"H  c #313C34",
"J  c #303F3F",
"K  c #344208",
"L  c #3B470F",
"P  c #364116",
"I  c #3A4611",
"U  c #3C4C17",
"Y  c #36421C",
"T  c #3A461C",
"R  c #3D4A1C",
"E  c #364122",
"W  c #3C4624",
"Q  c #374429",
"!  c #39442B",
"~  c #3D4B2B",
"^  c #3C4B34",
"/  c #35453A",
"(  c #3D4538",
")  c #3C483D",
"_  c #414C0C",
"`  c #464515",
"'  c #424E1C",
"]  c #445513",
"[  c #4E5515",
"{  c #47541E",
"}  c #4A571F",
"|  c #47591A",
" . c #404D23",
".. c #414D2E",
"X. c #4F4C28",
"o. c #4D5B23",
"O. c #44522A",
"+. c #49532B",
"@. c #4A5E2D",
"#. c #51572E",
"$. c #424C31",
"%. c #464F39",
"&. c #475031",
"*. c #4B5434",
"=. c #475937",
"-. c #4D5A34",
";. c #45533B",
":. c #4A563C",
">. c #4D593E",
",. c #515B35",
"<. c #526235",
"1. c #596530",
"2. c #53603E",
"3. c #5F6B3C",
"4. c #627033",
"5. c #3E4B45",
"6. c #34494D",
"7. c #3D4C4A",
"8. c #3F5152",
"9. c #464F4E",
"0. c #435343",
"q. c #4A5742",
"w. c #4D5C40",
"e. c #46544B",
"r. c #49544B",
"t. c #4B5B4E",
"y. c #535A43",
"u. c #4A5B56",
"i. c #4D6344",
"p. c #58664F",
"a. c #59694B",
"s. c #5D704D",
"d. c #576A54",
"f. c #55635F",
"g. c #5D7156",
"h. c #616C44",
"j. c #63724F",
"k. c #6E7C4B",
"l. c #677756",
"z. c #677A59",
"x. c #4C636F",
"c. c #4C6968",
"v. c #516263",
"b. c #546A66",
"n. c #506768",
"m. c #546B75",
"M. c #637B64",
"N. c #64746D",
"B. c #617779",
"V. c #75886E",
"C. c #698277",
"Z. c #7B9172",
"A. c #597C90",
"S. c #6D898A",
"D. c #748D85",
"F. c #71838A",
"G. c #7A9383",
"H. c #7F9788",
"J. c #728B93",
"K. c #718F9C",
"L. c #7B9291",
"P. c #7E9992",
"I. c #6A8DAB",
"U. c #7693A4",
"Y. c #7F9BAF",
"T. c #628DB4",
"R. c #698FB4",
"E. c #6590B7",
"W. c #6991B4",
"Q. c #6D96BC",
"!. c #7095B3",
"~. c #7497B8",
"^. c #739ABD",
"/. c #749EC3",
"(. c #76A1C6",
"). c #79A2C7",
"_. c #77A3CA",
"`. c #7BA5CB",
"'. c #7DA9CE",
"]. c #7DA9D1",
"[. c #8EA2A8",
"{. c #90A7A0",
"}. c #85A7BA",
"|. c #85A8BE",
" X c #91ADB7",
".X c #96B6BB",
"XX c #9BB5BC",
"oX c #86A4C0",
"OX c #80A7CA",
"+X c #81A9CE",
"@X c #89AECE",
"#X c #86B0CF",
"$X c #8FB2CA",
"%X c #83ADD2",
"&X c #89AFD1",
"*X c #87B0D5",
"=X c #8AB2D6",
"-X c #8CB6DA",
";X c #8EB9DB",
":X c #93B7D2",
">X c #9EBCD7",
",X c #92BBDC",
"<X c #98BEDF",
"1X c #A6BFD5",
"2X c #94BEE4",
"3X c #99BEE0",
"4X c #A7C6DE",
"5X c #ADCCDD",
"6X c #9DC3E3",
"7X c #9FC8E6",
"8X c #A1C5E4",
"9X c #A6CAE5",
"0X c #AAC9E6",
"qX c #A3CBEA",
"wX c #ABCFEA",
"eX c #ADD2ED",
"rX c #B2D4ED",
"tX c #BAD7EF",
"yX c #BAD8EF",
"uX c #A7CCF1",
"iX c #A6D1F2",
"pX c #BAD9F0",
"aX c #C0E2F5",
"sX c #CAE0F2",
"dX c #D5E8F6",
"fX c None",
/* pixels */
"7X-X:X,X,X,X4X4XfXfXfXfXfXfXfXfXfXfXfXfXfXfXfXfXfXfXfXfXfXfXfXfX",
"-X/.).).`.OXOX!.fXfXfXfXfXfXfXfXfXfXfXfXfXfXfXfXfXfXfXfXfXfXfXfX",
"-X(.).).).`.OXW.fXfXfXfXfXfXfXfXfXfXfXfXfXfXfXfXfXfXfXfXfXfXfXfX",
"-X).).).OXOX`.!.fXfXfXfXfXfXfXfXfXfXfXfXfXfXfXfXfXfXfXfXfXfXfXfX",
"-X`.`.).OXOXOXR.fXfXfXfXfXfXfXfXfXfXfXfXfXfXfXfXfXfXfXfXfXfXfXfX",
"-X/.).`.`.OX`.R.fXfXfXfXfXfXfXfXfXfXfXfXfXfXfXfXfXfXfXfXfXfXfXfX",
";X).`.`.`.`.@X~.fXfXfXfXfXfXfXfXfXfXfXfXfXfXfXfXfXfXfXfXfXfXfXfX",
"-X/././.).`.1X|.fXfXfXfXfXfXfXfXfXfXfXfXfXfXfXfXfXfXfXfXfXfXfXfX",
";X`.'.'.'.].'.'.7X6X7X9X9X9X9X:XfXfXfXfXfXfXfXfXdXyXtXtXtXtXtX4X",
";X_._.`.`.`.'.`.#X'.#X#X&X=X=X^.fXfXfXfXfXfXfXfXsX0X8X8X8X8X8X@X",
";X_._.'.`.'.`._.%X'.'.#X&X=X=X^.fXfXfXfXfXfXfXfXtX6X3X6X8X8X8X@X",
";X_.'._.'.`.`._.*X'.#X%X%X=X=X^.fXfXfXfXfXfXfXfXrX<X3X6X3X6X8X@X",
"6X_._._.].].]._.%X].%X%X*X=X=X^.fXfXfXfXfXfXfXfXrX<X3X6X6X8X8X&X",
";X`.]._._.].]._.*X%X%X%X%X=X=X^.fXfXfXfXfXfXfXfXrX3X<X3X3X8X8X&X",
"6X]._.].].].].`.].%X%X%X=X=X=X^.fXfXfXfXfXfXfXfX5X3X3X3X6X6X8X&X",
"w.Q A.T.T.T.T.T.].'.'.#X#X+X%X/.fXfXfXfXfXfXfXfXk.$X2X3X3X3X7XoX",
"k.z.4.V.Z..X7X#XqX*X-X;X;X;X-XQ.aXwXwXwXeXeXL.p.| G.P.H. XuXXXU.",
"<.g U ^ o.R *XE.qX%X*X*X=X=X-XQ.eX;X2X,XB.8.m.k W E s.U i.uX[.F.",
"i.P g d  .@.S.c.iX*X*X*X=X-X-X/.{.-XD.3Xx./ 6 B Z ^ 0.;.T a.Y.0.",
"e.Q M 0.~ O.z F V.).*X=X-X-X;X!.a.n.=.P.J.6.6.0.f.q.V M  .=.N.5.",
"y.u...W ~ ~ ;.5 j.g.-X@X-X;X;XI.:.V k 8 O.e.F ) ! &.m E %.E Q 8 ",
"=...$.k *./ T # l.R C.M.2XK.;.5.;.G i p Q 8 t.3 w.W / g k j 6 = ",
"=.U i M Y 7.Z 6 h.T o.1.d.b.r n ,.n D 5 5 d 6 2 g a z e 1 4 & o ",
" .r ] i 2 ..o.h  .1 j 2 9 . @   E 4 % O X @ # @ l q 4 1 @ ; = = ",
"O.k { ' k ' o.U 3.,.-...%.S ~ ! W ,.B v.9.S m Q &.p h ; u 5 c = ",
"+.l P W t q d g { 0 * % i % 2 0 b q 7 A S h 4 ; 9.$.#.w % % %   ",
",.r q 6 : u 5 f P O.: & ; % 5 N b : y L _ [ k 7 :.` x 0 & + o . ",
"#.q l P : 8 h / j l > = c D & F H e 2 y K e 3 @ +.0 s w & O O X ",
", % *  .3 = 5 G m i = : o 0 & . f t e 9 < & 1 X X.* 0 0 $ o o   ",
", X o : + * o o - & + + o l 0 6 l < r 2 @ % & @ C $ % + o o X   ",
",   . . o o o X - n - * 6 i < K L q & @ o & y O C * + o o . .   ",
"-                 = o # o + # @ X @ # . @ $ $ X a X X .         "
};
