/* XPM */
static char * 32_xpm[] = {
"32 32 357 2",
"  	c None",
". 	c #AECAE1",
"+ 	c #A0C0DC",
"@ 	c #A0C0DD",
"# 	c #97AEC4",
"$ 	c #89B1D4",
"% 	c #7291AC",
"& 	c #7090AB",
"* 	c #8BB2D5",
"= 	c #7392AD",
"- 	c #A0C1DC",
"; 	c #88B0D2",
"> 	c #86AED0",
", 	c #85ACCE",
"' 	c #86ADD0",
") 	c #95BADA",
"! 	c #7C99B2",
"~ 	c #9FC0DC",
"{ 	c #8AB2D5",
"] 	c #8CB3D6",
"^ 	c #8DB4D6",
"/ 	c #88AECF",
"( 	c #A3C3DE",
"_ 	c #A2C2DE",
": 	c #A2C2DD",
"< 	c #A3C2DE",
"[ 	c #A4C3DE",
"} 	c #A4C3DF",
"| 	c #8CA6BD",
"1 	c #C0D8ED",
"2 	c #B4D0E9",
"3 	c #98B0C6",
"4 	c #7191AC",
"5 	c #A1C4E3",
"6 	c #83A0B9",
"7 	c #7190AC",
"8 	c #A1C3E1",
"9 	c #8CB5DB",
"0 	c #7090AC",
"a 	c #A9C7E1",
"b 	c #A0C4E3",
"c 	c #58624B",
"d 	c #3C4935",
"e 	c #638097",
"f 	c #6B8DAA",
"g 	c #6B8CA9",
"h 	c #6A8AA7",
"i 	c #6A8BA7",
"j 	c #89AFD0",
"k 	c #717C64",
"l 	c #93B6D5",
"m 	c #9FC1E0",
"n 	c #9CBEDD",
"o 	c #9CBEDC",
"p 	c #9EC0DF",
"q 	c #A1C4E2",
"r 	c #809DB6",
"s 	c #818A6F",
"t 	c #707C62",
"u 	c #6A744F",
"v 	c #788677",
"w 	c #7C8C7D",
"x 	c #96AFBB",
"y 	c #A6C8E4",
"z 	c #87A2B9",
"A 	c #A5C6E2",
"B 	c #698AA6",
"C 	c #B7D2E8",
"D 	c #A3C3DF",
"E 	c #A4C4DF",
"F 	c #A6C5E2",
"G 	c #A6C6E3",
"H 	c #889D9F",
"I 	c #697459",
"J 	c #4C572D",
"K 	c #698280",
"L 	c #74909B",
"M 	c #738F96",
"N 	c #8DAEC5",
"O 	c #A5C7E5",
"P 	c #92B8D9",
"Q 	c #5E694A",
"R 	c #34411C",
"S 	c #39471F",
"T 	c #3C492A",
"U 	c #455224",
"V 	c #3F4C25",
"W 	c #8AB3D8",
"X 	c #A6C7E2",
"Y 	c #89B1D5",
"Z 	c #637E81",
"` 	c #465850",
" .	c #5B7169",
"..	c #36431C",
"+.	c #3A4821",
"@.	c #3A461D",
"#.	c #4E5C3F",
"$.	c #404C1E",
"%.	c #4D5F45",
"&.	c #A3C8ED",
"*.	c #86ACCA",
"=.	c #7090AD",
"-.	c #606A4C",
";.	c #2F3B1A",
">.	c #2E3919",
",.	c #303C1A",
"'.	c #3C4A21",
").	c #4A572D",
"!.	c #6D8893",
"~.	c #546B70",
"{.	c #A8CAE8",
"].	c #6B8CA8",
"^.	c #91A9B2",
"/.	c #728F9B",
"(.	c #8CB5DA",
"_.	c #5A706B",
":.	c #374422",
"<.	c #1B220D",
"[.	c #2D371A",
"}.	c #333F20",
"|.	c #41502F",
"1.	c #485733",
"2.	c #475635",
"3.	c #3B491F",
"4.	c #556759",
"5.	c #87AECF",
"6.	c #445246",
"7.	c #5E694D",
"8.	c #3C4A23",
"9.	c #364320",
"0.	c #425134",
"a.	c #414F2E",
"b.	c #3D4B24",
"c.	c #333F1B",
"d.	c #34402A",
"e.	c #7D8C7B",
"f.	c #83A8C5",
"g.	c #667053",
"h.	c #56685C",
"i.	c #45532F",
"j.	c #718F98",
"k.	c #6D8993",
"l.	c #475741",
"m.	c #425234",
"n.	c #445338",
"o.	c #54644E",
"p.	c #4A5937",
"q.	c #374322",
"r.	c #303B1C",
"s.	c #3D4B21",
"t.	c #445335",
"u.	c #5D7169",
"v.	c #404D3E",
"w.	c #5F6A49",
"x.	c #536352",
"y.	c #44522F",
"z.	c #3A4820",
"A.	c #3E4B28",
"B.	c #485633",
"C.	c #253012",
"D.	c #6F7B5E",
"E.	c #5B705E",
"F.	c #8AB2D6",
"G.	c #67879F",
"H.	c #5E6748",
"I.	c #36431D",
"J.	c #2C3618",
"K.	c #273016",
"L.	c #414F24",
"M.	c #47573D",
"N.	c #3B4927",
"O.	c #425136",
"P.	c #43512A",
"Q.	c #45532B",
"R.	c #2D3818",
"S.	c #37441F",
"T.	c #36421D",
"U.	c #39471E",
"V.	c #2E3A1E",
"W.	c #5B6649",
"X.	c #404E2A",
"Y.	c #394529",
"Z.	c #323F1B",
"`.	c #465534",
" +	c #384529",
".+	c #202A0F",
"++	c #717C5E",
"@+	c #3D4A1F",
"#+	c #627A75",
"$+	c #61786F",
"%+	c #7594A4",
"&+	c #4B5D44",
"*+	c #425248",
"=+	c #596149",
"-+	c #2D3720",
";+	c #1C230F",
">+	c #1B230F",
",+	c #343F23",
"'+	c #222B12",
")+	c #4B5B3B",
"!+	c #222C11",
"~+	c #495734",
"{+	c #394722",
"]+	c #3C492B",
"^+	c #313D1A",
"/+	c #2B3519",
"(+	c #293317",
"_+	c #1B220F",
":+	c #191F0E",
"<+	c #5E694C",
"[+	c #35421D",
"}+	c #212A12",
"|+	c #35421C",
"1+	c #435231",
"2+	c #34411D",
"3+	c #242E11",
"4+	c #6B7652",
"5+	c #485526",
"6+	c #4A562B",
"7+	c #576C5E",
"8+	c #53685C",
"9+	c #263014",
"0+	c #303C1F",
"a+	c #636D4E",
"b+	c #28311B",
"c+	c #2A341B",
"d+	c #1C2410",
"e+	c #1D2410",
"f+	c #1F2812",
"g+	c #19200E",
"h+	c #303D1C",
"i+	c #252E14",
"j+	c #1A210F",
"k+	c #171C0D",
"l+	c #4C5340",
"m+	c #2A3417",
"n+	c #424F24",
"o+	c #232C13",
"p+	c #1B220E",
"q+	c #435128",
"r+	c #2E3A1B",
"s+	c #515A3F",
"t+	c #20280E",
"u+	c #313C18",
"v+	c #273214",
"w+	c #273313",
"x+	c #0D1205",
"y+	c #151B09",
"z+	c #060B00",
"A+	c #4C553D",
"B+	c #1D260E",
"C+	c #171E0A",
"D+	c #101507",
"E+	c #111607",
"F+	c #101607",
"G+	c #0F1406",
"H+	c #394523",
"I+	c #1A210E",
"J+	c #1A200E",
"K+	c #161D0D",
"L+	c #596347",
"M+	c #2E391B",
"N+	c #424E28",
"O+	c #303B1F",
"P+	c #3D4923",
"Q+	c #424F26",
"R+	c #435028",
"S+	c #6B7553",
"T+	c #5A634A",
"U+	c #565F48",
"V+	c #4D5343",
"W+	c #4E5443",
"X+	c #4C5242",
"Y+	c #4D5243",
"Z+	c #4A4F40",
"`+	c #5F694D",
" @	c #4B5142",
".@	c #67725F",
"+@	c #5E6754",
"@@	c #464D39",
"#@	c #4E5343",
"$@	c #212913",
"%@	c #272F18",
"&@	c #222916",
"*@	c #202714",
"=@	c #1D2411",
"-@	c #555E45",
";@	c #2E391A",
">@	c #323D1C",
",@	c #232C14",
"'@	c #1C2310",
")@	c #202812",
"!@	c #313D1B",
"~@	c #404E25",
"{@	c #1D2510",
"]@	c #202813",
"^@	c #1F2712",
"/@	c #2F3A20",
"(@	c #333F22",
"_@	c #212A13",
":@	c #181F0E",
"<@	c #171E0B",
"[@	c #5D6652",
"}@	c #404E29",
"|@	c #4B5935",
"1@	c #222B13",
"2@	c #161C0D",
"3@	c #2C3819",
"4@	c #212912",
"5@	c #1E2611",
"6@	c #354120",
"7@	c #3F4D23",
"8@	c #28311C",
"9@	c #242C18",
"0@	c #1E2511",
"a@	c #283216",
"b@	c #36431E",
"c@	c #425024",
"d@	c #596249",
"e@	c #3C4921",
"f@	c #36441E",
"g@	c #2A3518",
"h@	c #303B1B",
"i@	c #1F2711",
"j@	c #39462F",
"k@	c #29311A",
"l@	c #303C1B",
"m@	c #2D3824",
"n@	c #333D2D",
"o@	c #222A13",
"p@	c #121808",
"q@	c #576049",
"r@	c #263015",
"s@	c #242D14",
"t@	c #464B3C",
"u@	c #36411E",
"v@	c #1C240F",
"w@	c #364325",
"x@	c #2C351B",
"y@	c #181F0D",
"z@	c #262D18",
"A@	c #293417",
"B@	c #505745",
"C@	c #464C3C",
"D@	c #1F2614",
"E@	c #252F14",
"F@	c #2D371B",
"G@	c #242E14",
"H@	c #2F3A1A",
"I@	c #35421F",
"J@	c #3B4033",
"K@	c #171D0D",
"L@	c #171D0E",
"M@	c #161B0D",
"N@	c #1B210F",
"O@	c #414538",
"P@	c #14180C",
". + + + + + @ #                                                 ",
"+ $ $ $ $ $ $ %                                                 ",
"+ $ $ $ $ $ $ &                                                 ",
"+ $ $ $ $ $ $ &                                                 ",
"+ $ $ $ $ $ $ &                                                 ",
"+ $ $ $ $ $ $ &                                                 ",
"+ $ $ $ $ $ * =                                                 ",
"- ; > , , ' ) !                                                 ",
"~ { ] ^ ^ ] { / ( _ : < ( [ } |                 1 2 2 2 2 2 2 3 ",
"+ $ $ $ $ $ $ ; { $ $ $ $ $ $ 4                 2 5 5 5 5 5 5 6 ",
"+ $ $ $ $ $ $ > ] $ $ $ $ $ $ 4                 2 5 5 5 5 5 5 6 ",
"+ $ $ $ $ $ $ , ^ $ $ $ $ $ $ 4                 2 5 5 5 5 5 5 6 ",
"+ $ $ $ $ $ $ , ^ $ $ $ $ $ $ 7                 2 5 5 5 5 5 5 6 ",
"+ $ $ $ $ $ $ > ] $ $ $ $ $ $ 7                 2 5 5 5 5 5 5 6 ",
"8 9 $ $ $ $ $ ; { $ $ $ $ $ $ 0                 a b 5 5 5 5 5 6 ",
"c d e f g h h i j ; > , , > ; &                 k l m n o p q r ",
"s t u v w x y z A { ] ^ ^ ] { B C ( D E F G H I J K L M N O P & ",
"Q R S T U V W h A $ $ $ $ $ $ h X $ Y { Z `  ...+.@.#.$.%.&.*.=.",
"-.;.>.,.'.).!.~.{.$ $ $ $ $ $ ].^.$ /.(._.:.<.[.}.|.1.2.3.4.5.6.",
"7.8.9.0.a.b.c.d.e.f.$ $ $ $ $ f g.h.i.j.k.l.m.n.o.p.q.r.s.t.u.v.",
"w.x.y.z.s.A.B.C.D.E.(.5.$ F.(.G.H.I.J.K.L.M.N.O.P.Q.R.S.y.T.U.V.",
"W.X.Y.Z.`. +T..+++@+#+$+9 %+&+*+=+-+;+>+,+'+)+!+~+{+]+^+/+(+_+:+",
"<+[+}+;.|+1+2+3+4+z.5+6+7+8+9+0+a+b+c+d+e+f+}+g+h+i+[.}+_+j+_+k+",
"l+m+n+o+p+q+5+r+s+t+u+v+w+x+y+z+A+B+C+D+E+F+F+G+H+e+I+J+J+I+_+K+",
"L+M+V N+O+P+Q+R+S+T+U+V+W+X+X+Y+Z+`+ @.@+@X+X+@@#@$@%@&@&@*@=@k+",
"-@;@>@'.,@'@)@!@~@{@_+_+'@_+_+d+]@,@^@/@(@_@:@<@[@}@|@1@_+_+_+2@",
"Q 3@4@5@j+e+j+R.6@7@j+_+_+I+_+8@9@0@a@b@s.c@2+B+d@e@f@d+_+_+_+2@",
"L+4@g@h@j+i@a@j@k@l@I+_+5@a@J+m@n@}+:+;.;.o@'@p@q@0@r@s@_+_+_+2@",
"t@_+_+u@0@j+v@w@x@i@_+_+_+i@_+y@z@A@}+e+j+_+_+F+B@_+_+_+_+_+_+2@",
"C@_+_+d+_+e+_+g+D@_+_+_+_+E@5@{@F@J+j+_+_+_+_+E+X+_+_+_+_+_+_+2@",
"C@_+_+_+_+_+_+_+=@_+_+_+_+G@d+H@I@)@_+_+_+_+e+F+X+_+_+_+_+_+_+2@",
"J@2@2@2@2@2@2@2@k+K@k+:+K@2@2@L@M@N@e+2@2@L@g+G+O@k+k+k+k+K+2@P@"};
